<?xml version="1.0" standalone="no"?>
<!DOCTYPE svg PUBLIC "-//W3C//DTD SVG 20010904//EN"
 "http://www.w3.org/TR/2001/REC-SVG-20010904/DTD/svg10.dtd">
<svg version="1.0" xmlns="http://www.w3.org/2000/svg"
 width="700.000000pt" height="700.000000pt" viewBox="0 0 700.000000 700.000000"
 preserveAspectRatio="xMidYMid meet">
<metadata>
Created by potrace 1.14, written by Peter Selinger 2001-2017
</metadata>
<g transform="translate(0.000000,700.000000) scale(0.100000,-0.100000)"
fill="#000000" stroke="none">
<path d="M4 5315 c-2 -5 -3 -827 -2 -1825 l3 -1815 253 0 c138 -1 253 2 254 5
0 3 2 577 4 1275 1 699 3 1274 3 1279 1 5 12 -11 24 -35 13 -24 68 -125 122
-224 54 -99 114 -209 133 -245 19 -36 46 -85 60 -110 14 -25 42 -76 62 -115
72 -134 152 -281 198 -365 72 -132 339 -626 345 -640 4 -8 20 -37 35 -65 24
-44 233 -427 345 -635 22 -41 48 -86 56 -100 l16 -26 182 1 c211 0 180 -16
260 135 28 52 79 147 113 210 34 63 77 142 95 175 17 33 43 80 57 105 14 25
43 79 65 120 22 41 83 154 135 250 52 96 115 211 138 255 23 44 55 103 70 130
15 28 49 91 75 140 26 50 69 128 95 175 26 47 68 126 95 175 26 50 75 140 108
200 33 61 72 133 87 160 35 64 346 639 392 725 20 36 47 85 60 110 105 190
308 570 308 577 0 5 -126 8 -280 8 -321 0 -278 15 -350 -120 -52 -97 -89 -165
-122 -225 -14 -25 -41 -74 -60 -110 -140 -258 -247 -456 -281 -520 -22 -41
-45 -84 -52 -95 -6 -11 -38 -69 -70 -130 -32 -60 -61 -114 -65 -120 -4 -5 -36
-64 -70 -130 -35 -66 -66 -124 -70 -130 -4 -5 -25 -44 -47 -85 -23 -41 -98
-181 -168 -310 -70 -129 -144 -264 -163 -300 -19 -36 -61 -112 -92 -170 -31
-58 -77 -141 -100 -185 -24 -44 -62 -114 -84 -155 -23 -41 -50 -92 -60 -112
-23 -44 -18 -49 -96 97 -104 196 -123 230 -140 260 -9 17 -39 71 -65 120 -26
50 -60 113 -75 140 -32 58 -67 123 -135 250 -26 50 -74 137 -105 195 -31 58
-79 146 -105 195 -26 50 -51 95 -55 100 -4 6 -33 60 -65 120 -32 61 -114 214
-183 340 -151 280 -150 277 -424 785 l-159 296 -250 0 c-166 0 -253 -4 -255
-11z"/>
<path d="M4804 5271 c-16 -31 -47 -90 -70 -131 -89 -162 -144 -268 -144 -276
0 -5 232 -9 533 -9 292 0 568 -4 612 -8 393 -38 618 -193 682 -471 4 -17 7
-83 7 -146 -1 -186 -43 -272 -199 -404 -100 -85 -302 -158 -504 -182 -25 -3
-441 -7 -923 -8 -483 -1 -879 -4 -881 -7 -2 -2 -57 -103 -122 -223 l-119 -219
0 -744 c-1 -409 1 -749 4 -756 4 -10 63 -13 261 -13 l255 1 0 738 c-1 482 2
741 9 745 6 4 314 7 685 8 738 1 781 3 1005 40 440 74 807 303 954 594 28 55
68 166 76 213 43 235 19 491 -64 687 -144 338 -494 549 -1001 604 -25 3 -72 8
-105 12 -33 3 -254 7 -491 8 l-431 2 -29 -55z"/>
</g>
</svg>
